<?xml version="1.0" encoding="UTF-8"?>
<svg xmlns="http://www.w3.org/2000/svg" xmlns:xlink="http://www.w3.org/1999/xlink" width="37.5pt" height="37.5pt" viewBox="0 0 37.5 37.5" version="1.1">
<g id="surface4679">
<path style=" stroke:none;fill-rule:nonzero;fill:rgb(100%,100%,100%);fill-opacity:1;" d="M 18.5 1.480469 C 9.109375 1.480469 1.480469 9.109375 1.480469 18.5 C 1.480469 27.890625 9.109375 35.519531 18.5 35.519531 C 27.890625 35.519531 35.519531 27.890625 35.519531 18.5 C 35.519531 9.109375 27.890625 1.480469 18.5 1.480469 Z M 18.5 2.960938 C 27.089844 2.960938 34.039062 9.910156 34.039062 18.5 C 34.039062 27.089844 27.089844 34.039062 18.5 34.039062 C 9.910156 34.039062 2.960938 27.089844 2.960938 18.5 C 2.960938 9.910156 9.910156 2.960938 18.5 2.960938 Z M 18.453125 7.976562 C 18.347656 7.992188 18.230469 8.035156 18.128906 8.09375 L 17.460938 8.488281 C 17.058594 8.71875 16.925781 9.246094 17.160156 9.644531 L 22.964844 19.632812 L 25.089844 18.382812 L 19.285156 8.394531 C 19.113281 8.097656 18.777344 7.9375 18.453125 7.976562 Z M 16.671875 11.308594 C 16.347656 11.265625 16.015625 11.402344 15.839844 11.703125 L 15.101562 12.972656 L 17.296875 14.246094 L 18.039062 12.996094 C 18.273438 12.597656 18.136719 12.074219 17.738281 11.839844 L 16.996094 11.402344 C 16.894531 11.34375 16.78125 11.324219 16.671875 11.308594 Z M 14.914062 13.273438 L 9.804688 22.0625 L 11.980469 23.332031 L 17.113281 14.570312 Z M 7.632812 17.25 L 7.632812 19.703125 L 10.753906 19.703125 L 12.1875 17.25 Z M 15.863281 17.25 L 14.5 19.703125 L 22.453125 19.703125 L 21.089844 17.25 Z M 24.953125 17.25 L 26.269531 19.703125 L 29.324219 19.703125 L 29.324219 17.25 Z M 25.320312 18.800781 L 23.195312 20.027344 L 24.421875 22.152344 L 26.546875 20.90625 Z M 26.453125 21.484375 C 26.382812 21.496094 26.296875 21.535156 26.222656 21.574219 C 25.875 21.773438 25.371094 22.0625 25.066406 22.246094 C 24.5 22.585938 24.9375 23.578125 25.066406 23.796875 C 25.804688 25.03125 26.554688 24.863281 27.125 25.738281 C 27.441406 26.214844 27.351562 26.410156 27.449219 26.570312 C 27.488281 26.628906 27.632812 26.707031 27.679688 26.640625 C 28.566406 25.417969 28.296875 23.296875 27.65625 22.363281 C 27.398438 21.980469 26.953125 21.402344 26.453125 21.484375 Z M 9.527344 22.523438 L 8.464844 26.523438 C 8.445312 26.597656 8.46875 26.671875 8.53125 26.710938 C 8.597656 26.746094 8.6875 26.738281 8.742188 26.6875 L 11.703125 23.820312 Z M 9.527344 22.523438 "/>
</g>
</svg>
