<?xml version="1.0" encoding="UTF-8"?>
<svg xmlns="http://www.w3.org/2000/svg" xmlns:xlink="http://www.w3.org/1999/xlink" width="37.5pt" height="37.5pt" viewBox="0 0 37.5 37.5" version="1.1">
<g id="surface5011">
<path style=" stroke:none;fill-rule:nonzero;fill:rgb(100%,100%,100%);fill-opacity:1;" d="M 5.019531 1.480469 C 5.007812 1.484375 5.003906 1.5 4.996094 1.503906 C 4.976562 1.507812 4.945312 1.496094 4.925781 1.503906 C 4.769531 1.519531 4.625 1.585938 4.507812 1.6875 C 4.011719 1.960938 3.699219 2.519531 3.699219 3.121094 L 3.699219 34.039062 C 3.699219 34.5 3.902344 34.980469 4.277344 35.265625 C 4.453125 35.460938 4.714844 35.546875 4.972656 35.496094 C 5.308594 35.515625 5.664062 35.4375 5.964844 35.265625 C 6.59375 34.902344 19.402344 27.496094 19.402344 27.496094 L 26.085938 23.632812 C 26.097656 23.628906 26.117188 23.621094 26.132812 23.609375 L 26.222656 23.5625 C 26.222656 23.5625 26.3125 23.519531 26.316406 23.519531 C 26.324219 23.507812 26.332031 23.503906 26.339844 23.496094 C 26.539062 23.378906 32.015625 20.230469 32.769531 19.796875 C 33.289062 19.496094 33.703125 19.007812 33.691406 18.40625 C 33.683594 17.808594 33.261719 17.34375 32.792969 17.089844 C 32.53125 16.949219 30.84375 15.984375 29.277344 15.078125 C 27.710938 14.167969 26.222656 13.296875 26.222656 13.296875 L 19.402344 9.367188 C 19.402344 9.367188 7 2.203125 6.265625 1.78125 C 6.007812 1.632812 5.71875 1.515625 5.433594 1.480469 C 5.292969 1.460938 5.15625 1.457031 5.019531 1.480469 Z M 5.179688 3.46875 L 20.257812 18.429688 L 5.179688 33.390625 Z M 8.695312 4.878906 C 12.457031 7.054688 18.660156 10.636719 18.660156 10.636719 L 24.628906 14.082031 L 21.296875 17.390625 Z M 25.945312 14.847656 C 26.300781 15.054688 27.207031 15.582031 28.535156 16.347656 C 30.101562 17.257812 31.710938 18.175781 32.097656 18.382812 C 32.136719 18.40625 32.125 18.417969 32.144531 18.429688 C 32.113281 18.449219 32.105469 18.457031 32.027344 18.5 C 31.316406 18.910156 26.707031 21.585938 25.96875 22.015625 L 22.339844 18.429688 Z M 21.296875 19.449219 L 24.652344 22.777344 L 18.660156 26.222656 C 18.660156 26.222656 12.621094 29.710938 8.71875 31.957031 Z M 21.296875 19.449219 "/>
</g>
</svg>
